<svg data-v-29081953="" xmlns="http://www.w3.org/2000/svg" viewBox="0 0 300 300"><!----><defs data-v-29081953=""><!----></defs><rect data-v-29081953="" fill="transparent" x="0" y="0" width="300px" height="300px" class="logo-background-square"></rect><defs data-v-29081953=""><!----></defs><g data-v-29081953="" id="064b9a89-60b3-49ca-b387-882ede54f9b6" fill="#000000" transform="matrix(3.55142744504069,0,0,3.55142744504069,15.77380113718727,167.13277125384585)"><path d="M2.07 13.50L2.07 9.20L6.45 9.20L6.45 8.34L2.07 8.34L2.07 4.68L6.78 4.68L6.78 3.82L1.19 3.82L1.19 13.50ZM8.78 13.50L8.78 3.82L7.94 3.82L7.94 13.50ZM11.86 13.50L11.86 6.51L11.02 6.51L11.02 13.50ZM11.91 5.11L11.91 3.82L10.96 3.82L10.96 5.11ZM14.94 13.50L14.94 9.91C14.94 9.21 15.02 8.62 15.29 8.18C15.55 7.71 16.23 7.14 17.25 7.14C17.89 7.14 18.34 7.31 18.65 7.63C18.97 7.98 19.12 8.57 19.12 9.58L19.12 13.50L19.99 13.50L19.99 9.45C19.99 8.36 19.84 7.63 19.50 7.20C19.07 6.65 18.47 6.34 17.44 6.34C16.20 6.34 15.20 7.07 14.94 7.92L14.94 6.51L14.10 6.51L14.10 13.50ZM21.88 13.99C22.05 15.08 22.92 16.04 24.95 16.04C26.21 16.04 27.19 15.65 27.73 14.92C28.13 14.38 28.29 13.55 28.29 12.40L28.29 6.51L27.44 6.51L27.44 7.76C27.08 6.85 26.08 6.33 24.91 6.33C23.04 6.33 21.62 7.62 21.62 9.93C21.62 12.12 22.96 13.30 24.78 13.30C26.15 13.30 27.10 12.59 27.45 11.73L27.45 12.54C27.45 13.26 27.31 13.87 27.12 14.22C26.82 14.77 26.24 15.27 25.00 15.27C23.88 15.27 22.92 14.92 22.75 13.85ZM27.45 9.83C27.45 11.51 26.52 12.59 24.92 12.59C23.66 12.59 22.50 11.72 22.50 9.90C22.50 8.05 23.69 7.08 25.03 7.08C26.67 7.08 27.45 8.27 27.45 9.83ZM39.31 13.50L39.31 12.64L34.24 12.64L34.24 8.89L38.91 8.89L38.91 8.04L34.24 8.04L34.24 4.68L39.13 4.68L39.13 3.82L33.36 3.82L33.36 13.50ZM41.58 13.50L41.58 9.91C41.58 9.21 41.66 8.62 41.93 8.18C42.20 7.71 42.87 7.14 43.89 7.14C44.53 7.14 44.98 7.31 45.29 7.63C45.61 7.98 45.77 8.57 45.77 9.58L45.77 13.50L46.63 13.50L46.63 9.45C46.63 8.36 46.48 7.63 46.14 7.20C45.71 6.65 45.11 6.34 44.09 6.34C42.84 6.34 41.85 7.07 41.58 7.92L41.58 6.51L40.74 6.51L40.74 13.50ZM48.52 13.99C48.69 15.08 49.56 16.04 51.59 16.04C52.85 16.04 53.83 15.65 54.38 14.92C54.77 14.38 54.94 13.55 54.94 12.40L54.94 6.51L54.08 6.51L54.08 7.76C53.72 6.85 52.72 6.33 51.55 6.33C49.69 6.33 48.26 7.62 48.26 9.93C48.26 12.12 49.60 13.30 51.42 13.30C52.79 13.30 53.75 12.59 54.10 11.73L54.10 12.54C54.10 13.26 53.96 13.87 53.76 14.22C53.47 14.77 52.88 15.27 51.65 15.27C50.53 15.27 49.56 14.92 49.39 13.85ZM54.10 9.83C54.10 11.51 53.16 12.59 51.56 12.59C50.30 12.59 49.14 11.72 49.14 9.90C49.14 8.05 50.33 7.08 51.67 7.08C53.31 7.08 54.10 8.27 54.10 9.83ZM58.00 13.50L58.00 6.51L57.16 6.51L57.16 13.50ZM58.06 5.11L58.06 3.82L57.11 3.82L57.11 5.11ZM61.08 13.50L61.08 9.91C61.08 9.21 61.17 8.62 61.43 8.18C61.70 7.71 62.37 7.14 63.39 7.14C64.04 7.14 64.48 7.31 64.79 7.63C65.11 7.98 65.27 8.57 65.27 9.58L65.27 13.50L66.14 13.50L66.14 9.45C66.14 8.36 65.98 7.63 65.65 7.20C65.21 6.65 64.61 6.34 63.59 6.34C62.34 6.34 61.35 7.07 61.08 7.92L61.08 6.51L60.24 6.51L60.24 13.50ZM74.37 11.38L73.54 11.20C73.29 12.15 72.45 12.88 71.19 12.88C70.15 12.88 68.67 12.32 68.66 10.19L74.40 10.19C74.40 7.62 73.18 6.33 71.12 6.33C69.26 6.33 67.76 7.71 67.76 9.97C67.76 12.19 68.99 13.66 71.16 13.66C72.87 13.66 74.03 12.71 74.37 11.38ZM68.66 9.51C68.80 7.91 69.86 7.11 71.11 7.11C72.77 7.11 73.40 8.19 73.50 9.51Z"></path></g><defs data-v-29081953=""><!----></defs><g data-v-29081953="" id="09290227-6a48-45bb-8b96-57da236bce6e" stroke="none" fill="#F01D08" transform="matrix(4.339844771363581,0,0,4.339844771363581,106.60155228636418,75.90232842954629)"><path d="M15.2 11.2l-5.5 5.5c-.9.9-2 1.3-3.2 1.3-1.2 0-2.3-.5-3.2-1.3-.9-.9-1.3-2-1.3-3.2 0-1.2.5-2.3 1.3-3.2l7.6-7.6c.4-.4.4-1 0-1.4-.4-.4-1-.4-1.4 0L1.9 8.9C.7 10.1 0 11.8 0 13.5s.7 3.4 1.9 4.6C3.1 19.3 4.8 20 6.5 20s3.4-.7 4.6-1.9l5.5-5.5c.4-.4.4-1 0-1.4-.4-.4-1-.4-1.4 0z"></path><circle cx="6.5" cy="13.5" r="3.5"></circle><path d="M10.7 6.3c-.4-.4-1-.4-1.4 0l-1 1c-.4.4-.4 1 0 1.4.2.2.7.5 1.4 0l1-1c.4-.4.4-1 0-1.4zM17.3 5.3l-1 1c-.4.4-.4 1 0 1.4.2.2.7.5 1.4 0l1-1c.4-.4.4-1 0-1.4-.4-.4-1-.4-1.4 0zM11.3 11.7c.2.2.8.5 1.4 0l2-2c.4-.4.4-1 0-1.4-.4-.4-1-.4-1.4 0l-2 2c-.4.4-.4 1 0 1.4zM19.7.3c-.4-.4-1-.4-1.4 0l-1 1c-.4.4-.4 1 0 1.4.2.2.7.6 1.4 0l1-1c.4-.4.4-1 0-1.4zM13.7 5.7l2-2c.4-.4.4-1 0-1.4-.4-.4-1-.4-1.4 0l-2 2c-.4.4-.4 1 0 1.4.2.2.7.6 1.4 0z"></path></g><!----></svg>